<?xml version="1.0" ?><!DOCTYPE svg  PUBLIC '-//W3C//DTD SVG 1.1//EN'  'http://www.w3.org/Graphics/SVG/1.1/DTD/svg11.dtd'><svg enable-background="new 0 0 130 130" height="130px" id="Layer_1" version="1.1" viewBox="0 0 130 130" width="130px" xml:space="preserve" xmlns="http://www.w3.org/2000/svg" xmlns:xlink="http://www.w3.org/1999/xlink"><g><g><g><circle cx="65" cy="65" fill="#8BE3F7" r="48"/><circle cx="65.001" cy="65" fill="#41C6E5" r="34.968"/></g><g><g><path d="M90.076,87.152v-39.35c0-13.848-11.23-25.076-25.078-25.076c-13.85,0-25.076,11.229-25.076,25.076      v39.375c-0.004,0.045-0.012,0.084-0.012,0.127v11.691c0,1.748,1.418,3.168,3.166,3.168s3.162-1.414,3.168-3.158v-4.545      c0-1.275,1.035-2.311,2.311-2.311s2.311,1.035,2.311,2.311v2.82h0.006v1.715c0,1.748,1.416,3.168,3.166,3.168      c1.734,0,3.133-1.393,3.162-3.117v-4.586c0-1.275,1.035-2.311,2.311-2.311s2.311,1.035,2.311,2.311v2.82h0.012v1.715      c0,1.748,1.416,3.168,3.17,3.168c1.697,0,3.074-1.344,3.15-3.023v-4.68c0-1.275,1.035-2.311,2.311-2.311      s2.311,1.035,2.311,2.311v2.82h0.02v1.715c0,1.748,1.42,3.168,3.17,3.168c1.676,0,3.037-1.312,3.145-2.963v-4.74      c0-1.275,1.035-2.311,2.311-2.311s2.311,1.035,2.311,2.311v2.82h0.031v1.715c0,1.748,1.414,3.168,3.164,3.168      c1.752,0,3.168-1.42,3.168-3.168V87.305C90.092,87.252,90.078,87.205,90.076,87.152z" fill="#E7F2F2"/><path d="M78.688,64.742c0,0.736-0.596,1.334-1.332,1.334H52.188c-0.736,0-1.332-0.598-1.332-1.334l0,0      c0-0.736,0.596-1.332,1.332-1.332h25.168C78.092,63.41,78.688,64.006,78.688,64.742L78.688,64.742z" fill="#FFFFFF"/><g><path d="M54.037,98.811c-1.75,0-3.166-1.42-3.166-3.168v-1.715h-0.006v-2.82c0-1.275-1.035-2.311-2.311-2.311       s-2.311,1.035-2.311,2.311v3.354c0-1.275,1.035-2.311,2.311-2.311s2.311,1.035,2.311,2.311v2.82h0.006v1.715       c0,1.748,1.416,3.168,3.166,3.168c1.734,0,3.133-1.393,3.162-3.117v-3.354C57.17,97.418,55.771,98.811,54.037,98.811z" fill="#CADDDC"/><path d="M65.002,98.811c-1.754,0-3.17-1.42-3.17-3.168v-1.715H61.82v-2.82c0-1.275-1.035-2.311-2.311-2.311       s-2.311,1.035-2.311,2.311v3.354c0-1.275,1.035-2.311,2.311-2.311s2.311,1.035,2.311,2.311v2.82h0.012v1.715       c0,1.748,1.416,3.168,3.17,3.168c1.697,0,3.074-1.344,3.15-3.023v-3.354C68.076,97.467,66.699,98.811,65.002,98.811z" fill="#CADDDC"/><path d="M43.076,98.811c-1.748,0-3.166-1.42-3.166-3.168v3.354c0,1.748,1.418,3.168,3.166,3.168       s3.162-1.414,3.168-3.158v-3.354C46.238,97.396,44.824,98.811,43.076,98.811z" fill="#CADDDC"/><path d="M75.963,98.811c-1.75,0-3.17-1.42-3.17-3.168v-1.715h-0.02v-2.82c0-1.275-1.035-2.311-2.311-2.311       s-2.311,1.035-2.311,2.311v3.354c0-1.275,1.035-2.311,2.311-2.311s2.311,1.035,2.311,2.311v2.82h0.02v1.715       c0,1.748,1.42,3.168,3.17,3.168c1.676,0,3.037-1.312,3.145-2.963v-3.354C79,97.498,77.639,98.811,75.963,98.811z" fill="#CADDDC"/><path d="M86.924,98.811c-1.75,0-3.164-1.42-3.164-3.168v-1.715h-0.031v-2.82c0-1.275-1.035-2.311-2.311-2.311       s-2.311,1.035-2.311,2.311v3.354c0-1.275,1.035-2.311,2.311-2.311s2.311,1.035,2.311,2.311v2.82h0.031v1.715       c0,1.748,1.414,3.168,3.164,3.168c1.752,0,3.168-1.42,3.168-3.168v-3.354C90.092,97.391,88.676,98.811,86.924,98.811z" fill="#CADDDC"/></g><g><path d="M64.998,30.518c13.848,0,25.078,11.229,25.078,25.076v-7.791c0-13.848-11.23-25.076-25.078-25.076       c-13.85,0-25.076,11.229-25.076,25.076v7.791C39.922,41.746,51.148,30.518,64.998,30.518z" fill="#FFFFFF"/><path d="M90.076,87.152v7.791c0.002,0.053,0.016,0.1,0.016,0.152v-7.791       C90.092,87.252,90.078,87.205,90.076,87.152z" fill="#FFFFFF"/><path d="M39.922,87.178c-0.004,0.045-0.012,0.084-0.012,0.127v7.791c0-0.043,0.008-0.082,0.012-0.127V87.178z" fill="#FFFFFF"/></g><path d="      M90.076,87.152v-39.35c0-13.848-11.23-25.076-25.078-25.076c-13.85,0-25.076,11.229-25.076,25.076v39.375      c-0.004,0.045-0.012,0.084-0.012,0.127v11.691c0,1.748,1.418,3.168,3.166,3.168s3.162-1.414,3.168-3.158v-4.545      c0-1.275,1.035-2.311,2.311-2.311s2.311,1.035,2.311,2.311v2.82h0.006v1.715c0,1.748,1.416,3.168,3.166,3.168      c1.734,0,3.133-1.393,3.162-3.117v-4.586c0-1.275,1.035-2.311,2.311-2.311s2.311,1.035,2.311,2.311v2.82h0.012v1.715      c0,1.748,1.416,3.168,3.17,3.168c1.697,0,3.074-1.344,3.15-3.023v-4.68c0-1.275,1.035-2.311,2.311-2.311      s2.311,1.035,2.311,2.311v2.82h0.02v1.715c0,1.748,1.42,3.168,3.17,3.168c1.676,0,3.037-1.312,3.145-2.963v-4.74      c0-1.275,1.035-2.311,2.311-2.311s2.311,1.035,2.311,2.311v2.82h0.031v1.715c0,1.748,1.414,3.168,3.164,3.168      c1.752,0,3.168-1.42,3.168-3.168V87.305C90.092,87.252,90.078,87.205,90.076,87.152z" fill="none" stroke="#343D47" stroke-linecap="round" stroke-linejoin="round" stroke-miterlimit="10" stroke-width="2"/><line fill="none" stroke="#343D47" stroke-linecap="round" stroke-linejoin="round" stroke-miterlimit="10" stroke-width="2" x1="46.244" x2="46.244" y1="99.006" y2="88.797"/><line fill="none" stroke="#343D47" stroke-linecap="round" stroke-linejoin="round" stroke-miterlimit="10" stroke-width="2" x1="57.199" x2="57.199" y1="99.006" y2="88.797"/><line fill="none" stroke="#343D47" stroke-linecap="round" stroke-linejoin="round" stroke-miterlimit="10" stroke-width="2" x1="68.154" x2="68.154" y1="99.006" y2="88.797"/><line fill="none" stroke="#343D47" stroke-linecap="round" stroke-linejoin="round" stroke-miterlimit="10" stroke-width="2" x1="79.109" x2="79.109" y1="99.006" y2="88.797"/></g><path d="M75.668,66.076H54.334c-2.258,0-4.223-1.248-5.248-3.092h-0.752v0.184c0,3.314,2.688,6,6,6h21.334     c3.312,0,6-2.686,6-6v-0.184h-0.754C79.891,64.828,77.926,66.076,75.668,66.076z" fill="#CADDDC"/><path d="     M81.668,59.891v0.186c0,3.312-2.688,6-6,6H54.334c-3.312,0-6-2.688-6-6v-0.186" fill="none" stroke="#343D47" stroke-linecap="round" stroke-linejoin="round" stroke-miterlimit="10" stroke-width="2"/><g><path d="      M54.975,55.48c0,0.342-0.277,0.619-0.619,0.619l0,0c-0.342,0-0.619-0.277-0.619-0.619V53.27c0-0.342,0.277-0.619,0.619-0.619      l0,0c0.342,0,0.619,0.277,0.619,0.619V55.48z" fill="none" stroke="#343D47" stroke-linecap="round" stroke-linejoin="round" stroke-miterlimit="10" stroke-width="2"/><path d="      M76.266,55.48c0,0.342-0.277,0.619-0.621,0.619l0,0c-0.342,0-0.619-0.277-0.619-0.619V53.27c0-0.342,0.277-0.619,0.619-0.619      l0,0c0.344,0,0.621,0.277,0.621,0.619V55.48z" fill="none" stroke="#343D47" stroke-linecap="round" stroke-linejoin="round" stroke-miterlimit="10" stroke-width="2"/></g></g></g><circle cx="24.519" cy="79.078" fill="#41C6E5" r="1.249"/><circle cx="27.146" cy="53.717" fill="#41C6E5" r="2.626"/><circle cx="98.915" cy="85.768" fill="#41C6E5" r="1.386"/><circle cx="106.888" cy="65.027" fill="#41C6E5" r="2.581"/><circle cx="102.903" cy="50.5" fill="#41C6E5" r="1.202"/><circle cx="35.761" cy="61.307" fill="#8BE3F7" r="1.989"/><circle cx="37.235" cy="71.316" fill="#8BE3F7" r="1.474"/><circle cx="98.039" cy="67.084" fill="#8BE3F7" r="2.084"/></g></svg>